<svg width="37" height="37" viewBox="0 0 37 37" fill="none" xmlns="http://www.w3.org/2000/svg">
<path d="M21.232 11.8H24.664L24.64 25H21.208V23.224C20.296 24.472 18.928 25.288 17.08 25.288C13.624 25.288 11.056 22.456 11.056 18.4C11.056 14.32 13.672 11.512 17.056 11.512C18.928 11.512 20.32 12.376 21.232 13.648V11.8ZM17.848 22.024C19.768 22.024 21.232 20.584 21.232 18.4C21.232 16.24 19.768 14.776 17.848 14.776C15.928 14.776 14.512 16.24 14.512 18.4C14.512 20.584 15.952 22.024 17.848 22.024Z" fill="#1166DD"/>
<path d="M37 18.5C37 28.7173 28.7173 37 18.5 37C8.28273 37 0 28.7173 0 18.5C0 8.28273 8.28273 0 18.5 0C28.7173 0 37 8.28273 37 18.5ZM3.1005 18.5C3.1005 27.0049 9.99509 33.8995 18.5 33.8995C27.0049 33.8995 33.8995 27.0049 33.8995 18.5C33.8995 9.99509 27.0049 3.1005 18.5 3.1005C9.99509 3.1005 3.1005 9.99509 3.1005 18.5Z" fill="#1166DD"/>
</svg>
